TITLE ""
FILE "1Q_t_1310-1319.mp3" MP3
  TRACK 01 AUDIO
    TITLE "1Q_t_1310-1319_01"
    INDEX 01 00:00:00
  TRACK 02 AUDIO
    TITLE "1Q_t_1310-1319_02"
    INDEX 01 00:01:04
  TRACK 03 AUDIO
    TITLE "1Q_t_1310-1319_03"
    INDEX 01 00:01:10
  TRACK 04 AUDIO
    TITLE "1Q_t_1310-1319_04"
    INDEX 01 00:02:58
  TRACK 05 AUDIO
    TITLE "1Q_t_1310-1319_05"
    INDEX 01 00:02:64
  TRACK 06 AUDIO
    TITLE "1Q_t_1310-1319_06"
    INDEX 01 00:07:32
  TRACK 07 AUDIO
    TITLE "1Q_t_1310-1319_07"
    INDEX 01 00:08:02
  TRACK 08 AUDIO
    TITLE "1Q_t_1310-1319_08"
    INDEX 01 00:09:15
  TRACK 09 AUDIO
    TITLE "1Q_t_1310-1319_09"
    INDEX 01 00:09:25
  TRACK 10 AUDIO
    TITLE "1Q_t_1310-1319_10"
    INDEX 01 00:12:17
  TRACK 11 AUDIO
    TITLE "1Q_t_1310-1319_11"
    INDEX 01 00:12:23
  TRACK 12 AUDIO
    TITLE "1Q_t_1310-1319_12"
    INDEX 01 00:17:03
  TRACK 13 AUDIO
    TITLE "1Q_t_1310-1319_13"
    INDEX 01 00:17:50
  TRACK 14 AUDIO
    TITLE "1Q_t_1310-1319_14"
    INDEX 01 00:18:61
  TRACK 15 AUDIO
    TITLE "1Q_t_1310-1319_15"
    INDEX 01 00:18:71
  TRACK 16 AUDIO
    TITLE "1Q_t_1310-1319_16"
    INDEX 01 00:21:58
  TRACK 17 AUDIO
    TITLE "1Q_t_1310-1319_17"
    INDEX 01 00:21:63
  TRACK 18 AUDIO
    TITLE "1Q_t_1310-1319_18"
    INDEX 01 00:26:25
  TRACK 19 AUDIO
    TITLE "1Q_t_1310-1319_19"
    INDEX 01 00:26:70
  TRACK 20 AUDIO
    TITLE "1Q_t_1310-1319_20"
    INDEX 01 00:27:70
  TRACK 21 AUDIO
    TITLE "1Q_t_1310-1319_21"
    INDEX 01 00:28:03
  TRACK 22 AUDIO
    TITLE "1Q_t_1310-1319_22"
    INDEX 01 00:30:58
  TRACK 23 AUDIO
    TITLE "1Q_t_1310-1319_23"
    INDEX 01 00:30:66
  TRACK 24 AUDIO
    TITLE "1Q_t_1310-1319_24"
    INDEX 01 00:35:09
  TRACK 25 AUDIO
    TITLE "1Q_t_1310-1319_25"
    INDEX 01 00:35:52
  TRACK 26 AUDIO
    TITLE "1Q_t_1310-1319_26"
    INDEX 01 00:36:65
  TRACK 27 AUDIO
    TITLE "1Q_t_1310-1319_27"
    INDEX 01 00:36:73
  TRACK 28 AUDIO
    TITLE "1Q_t_1310-1319_28"
    INDEX 01 00:38:34
  TRACK 29 AUDIO
    TITLE "1Q_t_1310-1319_29"
    INDEX 01 00:38:42
  TRACK 30 AUDIO
    TITLE "1Q_t_1310-1319_30"
    INDEX 01 00:42:69
  TRACK 31 AUDIO
    TITLE "1Q_t_1310-1319_31"
    INDEX 01 00:43:40
  TRACK 32 AUDIO
    TITLE "1Q_t_1310-1319_32"
    INDEX 01 00:44:57
  TRACK 33 AUDIO
    TITLE "1Q_t_1310-1319_33"
    INDEX 01 00:44:64
  TRACK 34 AUDIO
    TITLE "1Q_t_1310-1319_34"
    INDEX 01 00:46:50
  TRACK 35 AUDIO
    TITLE "1Q_t_1310-1319_35"
    INDEX 01 00:46:55
  TRACK 36 AUDIO
    TITLE "1Q_t_1310-1319_36"
    INDEX 01 00:51:31
  TRACK 37 AUDIO
    TITLE "1Q_t_1310-1319_37"
    INDEX 01 00:52:01
  TRACK 38 AUDIO
    TITLE "1Q_t_1310-1319_38"
    INDEX 01 00:53:26
  TRACK 39 AUDIO
    TITLE "1Q_t_1310-1319_39"
    INDEX 01 00:53:34
  TRACK 40 AUDIO
    TITLE "1Q_t_1310-1319_40"
    INDEX 01 00:56:75
  TRACK 41 AUDIO
    TITLE "1Q_t_1310-1319_41"
    INDEX 01 00:57:08
  TRACK 42 AUDIO
    TITLE "1Q_t_1310-1319_42"
    INDEX 01 01:01:33
  TRACK 43 AUDIO
    TITLE "1Q_t_1310-1319_43"
    INDEX 01 01:02:04
  TRACK 44 AUDIO
    TITLE "1Q_t_1310-1319_44"
    INDEX 01 01:03:15
  TRACK 45 AUDIO
    TITLE "1Q_t_1310-1319_45"
    INDEX 01 01:03:25
  TRACK 46 AUDIO
    TITLE "1Q_t_1310-1319_46"
    INDEX 01 01:06:33
  TRACK 47 AUDIO
    TITLE "1Q_t_1310-1319_47"
    INDEX 01 01:06:39
  TRACK 48 AUDIO
    TITLE "1Q_t_1310-1319_48"
    INDEX 01 01:11:69
  TRACK 49 AUDIO
    TITLE "1Q_t_1310-1319_49"
    INDEX 01 01:12:39
  TRACK 50 AUDIO
    TITLE "1Q_t_1310-1319_50"
    INDEX 01 01:13:52
  TRACK 51 AUDIO
    TITLE "1Q_t_1310-1319_51"
    INDEX 01 01:13:60
  TRACK 52 AUDIO
    TITLE "1Q_t_1310-1319_52"
    INDEX 01 01:17:05
  TRACK 53 AUDIO
    TITLE "1Q_t_1310-1319_53"
    INDEX 01 01:17:13
  TRACK 54 AUDIO
    TITLE "1Q_t_1310-1319_54"
    INDEX 01 01:22:57
  TRACK 55 AUDIO
    TITLE "1Q_t_1310-1319_55"
    INDEX 01 01:23:27
  TRACK 56 AUDIO
    TITLE "1Q_t_1310-1319_56"
    INDEX 01 01:24:37
  TRACK 57 AUDIO
    TITLE "1Q_t_1310-1319_57"
    INDEX 01 01:24:44
  TRACK 58 AUDIO
    TITLE "1Q_t_1310-1319_58"
    INDEX 01 01:26:28
  TRACK 59 AUDIO
    TITLE "1Q_t_1310-1319_59"
    INDEX 01 01:26:33
  TRACK 60 AUDIO
    TITLE "1Q_t_1310-1319_60"
    INDEX 01 01:31:72
